<svg width="35" height="35" viewBox="0 0 35 35" fill="none" xmlns="http://www.w3.org/2000/svg">
<path d="M29.1358 4.97845C25.9298 1.76977 21.6662 0.00180348 17.1235 0C7.76381 0 0.146128 7.61477 0.142382 16.9746C0.14118 19.9665 0.923106 22.8869 2.40908 25.4612L0 34.258L9.00193 31.8974C11.4822 33.2498 14.2747 33.9625 17.1168 33.9637H17.1238C26.4825 33.9637 34.1009 26.348 34.1047 16.9881C34.1065 12.4522 32.3419 8.18712 29.1358 4.97845ZM17.1238 31.0966H17.118C14.5854 31.0957 12.1014 30.4155 9.93437 29.1299L9.41895 28.8242L4.07708 30.225L5.50294 25.0184L5.16726 24.4846C3.75444 22.2381 3.00826 19.6416 3.00937 16.9757C3.01242 9.19624 9.34399 2.86708 17.1292 2.86708C20.899 2.86851 24.4427 4.33812 27.1075 7.00501C29.7723 9.6719 31.239 13.2169 31.2376 16.987C31.2345 24.7671 24.903 31.0966 17.1238 31.0966ZM24.8656 20.5294C24.4412 20.3171 22.3552 19.2909 21.9662 19.1493C21.5773 19.0077 21.2945 18.937 21.0116 19.3617C20.7288 19.7863 19.9156 20.7417 19.6681 21.0248C19.4206 21.3079 19.1731 21.3433 18.7488 21.1309C18.3245 20.9186 16.9573 20.4707 15.3367 19.0257C14.0754 17.9011 13.2238 16.5119 12.9763 16.0873C12.7288 15.6626 12.95 15.4331 13.1624 15.2216C13.3532 15.0316 13.5867 14.7262 13.7988 14.4785C14.0109 14.2309 14.0817 14.0539 14.2231 13.7708C14.3646 13.4877 14.2938 13.24 14.1877 13.0277C14.0817 12.8154 13.2331 10.7276 12.8795 9.87832C12.5351 9.05122 12.1853 9.16313 11.9248 9.15013C11.6776 9.13783 11.3945 9.13524 11.1116 9.13524C10.8288 9.13524 10.3691 9.24137 9.9802 9.66602C9.5913 10.0907 8.49519 11.1169 8.49519 13.2046C8.49519 15.2923 10.0155 17.3093 10.2277 17.5924C10.4399 17.8755 13.2196 22.1599 17.4759 23.9971C18.4882 24.4341 19.2785 24.6951 19.8948 24.8907C20.9112 25.2134 21.8362 25.1679 22.5673 25.0587C23.3825 24.9369 25.0776 24.0326 25.4312 23.0418C25.7848 22.051 25.7848 21.2017 25.6787 21.0248C25.5727 20.8479 25.2898 20.7417 24.8656 20.5294Z" fill="#2BB826"/>
</svg>
